<svg xmlns="http://www.w3.org/2000/svg" width="400" height="300" viewBox="0 0 400 300">
  <rect width="400" height="300" fill="#f3f5fb"/>
  <g>
    <rect x="70" y="30" width="60" height="60" rx="8" fill="#3498db"/>
    <rect x="140" y="30" width="60" height="60" rx="8" fill="#3498db"/>
    <rect x="210" y="30" width="60" height="60" rx="8" fill="#3498db"/>
    <rect x="280" y="30" width="60" height="60" rx="8" fill="#3498db"/>
    <rect x="70" y="100" width="60" height="60" rx="8" fill="#3498db"/>
    <rect x="140" y="100" width="60" height="60" rx="8" fill="#5dade2"/>
    <rect x="210" y="100" width="60" height="60" rx="8" fill="#3498db"/>
    <rect x="280" y="100" width="60" height="60" rx="8" fill="#3498db"/>
    <rect x="70" y="170" width="60" height="60" rx="8" fill="#3498db"/>
    <rect x="140" y="170" width="60" height="60" rx="8" fill="#3498db"/>
    <rect x="210" y="170" width="60" height="60" rx="8" fill="#3498db"/>
    <rect x="280" y="170" width="60" height="60" rx="8" fill="#3498db"/>
  </g>
  <circle cx="170" cy="130" r="38" fill="none" stroke="#e74c3c" stroke-width="4"/>
  <rect x="0" y="248" width="400" height="52" fill="#2c3e50"/>
  <text x="200" y="282" font-family="Arial, sans-serif" font-size="30" font-weight="bold" fill="#ffffff" text-anchor="middle">Odd One Out</text>
</svg>
