<svg xmlns="http://www.w3.org/2000/svg" viewBox="0 0 400 300">
  <defs>
    <linearGradient id="bg" x1="0%" y1="0%" x2="100%" y2="100%">
      <stop offset="0%" style="stop-color:#0a0a1a"/>
      <stop offset="100%" style="stop-color:#1a0a2e"/>
    </linearGradient>
    <radialGradient id="sh" cx="32%" cy="28%" r="55%">
      <stop offset="0%" style="stop-color:#ffffff;stop-opacity:0.38"/>
      <stop offset="100%" style="stop-color:#ffffff;stop-opacity:0"/>
    </radialGradient>
  </defs>
  <rect width="400" height="300" fill="url(#bg)"/>
  <!-- Grid lines -->
  <g stroke="#1e1e3a" stroke-width="1" opacity="0.7">
    <line x1="60" y1="30" x2="60" y2="255"/><line x1="110" y1="30" x2="110" y2="255"/>
    <line x1="160" y1="30" x2="160" y2="255"/><line x1="210" y1="30" x2="210" y2="255"/>
    <line x1="260" y1="30" x2="260" y2="255"/><line x1="310" y1="30" x2="310" y2="255"/>
    <line x1="10" y1="80" x2="360" y2="80"/><line x1="10" y1="130" x2="360" y2="130"/>
    <line x1="10" y1="180" x2="360" y2="180"/><line x1="10" y1="230" x2="360" y2="230"/>
  </g>
  <!-- Row 1 -->
  <circle cx="35" cy="55" r="17" fill="#e74c3c"/><circle cx="35" cy="55" r="17" fill="url(#sh)"/>
  <circle cx="85" cy="55" r="17" fill="#9b59b6"/><circle cx="85" cy="55" r="17" fill="url(#sh)"/>
  <circle cx="135" cy="55" r="17" fill="#3498db"/><circle cx="135" cy="55" r="17" fill="url(#sh)"/>
  <circle cx="185" cy="55" r="17" fill="#2ecc71"/><circle cx="185" cy="55" r="17" fill="url(#sh)"/>
  <circle cx="235" cy="55" r="17" fill="#e67e22"/><circle cx="235" cy="55" r="17" fill="url(#sh)"/>
  <circle cx="285" cy="55" r="17" fill="#f1c40f"/><circle cx="285" cy="55" r="17" fill="url(#sh)"/>
  <circle cx="335" cy="55" r="17" fill="#e74c3c"/><circle cx="335" cy="55" r="17" fill="url(#sh)"/>
  <!-- Row 2 — three matching purple gems highlighted -->
  <circle cx="35" cy="105" r="17" fill="#3498db"/><circle cx="35" cy="105" r="17" fill="url(#sh)"/>
  <circle cx="85" cy="105" r="17" fill="#f1c40f"/><circle cx="85" cy="105" r="17" fill="url(#sh)"/>
  <circle cx="135" cy="105" r="22" fill="#9b59b6" opacity="0.25"/>
  <circle cx="135" cy="105" r="17" fill="#9b59b6"/><circle cx="135" cy="105" r="17" fill="url(#sh)"/>
  <circle cx="185" cy="105" r="22" fill="#9b59b6" opacity="0.25"/>
  <circle cx="185" cy="105" r="17" fill="#9b59b6"/><circle cx="185" cy="105" r="17" fill="url(#sh)"/>
  <circle cx="235" cy="105" r="22" fill="#9b59b6" opacity="0.25"/>
  <circle cx="235" cy="105" r="17" fill="#9b59b6"/><circle cx="235" cy="105" r="17" fill="url(#sh)"/>
  <circle cx="285" cy="105" r="17" fill="#e74c3c"/><circle cx="285" cy="105" r="17" fill="url(#sh)"/>
  <circle cx="335" cy="105" r="17" fill="#2ecc71"/><circle cx="335" cy="105" r="17" fill="url(#sh)"/>
  <!-- Match glow rings -->
  <circle cx="135" cy="105" r="22" fill="none" stroke="#a855f7" stroke-width="2.5" opacity="0.85"/>
  <circle cx="185" cy="105" r="22" fill="none" stroke="#a855f7" stroke-width="2.5" opacity="0.85"/>
  <circle cx="235" cy="105" r="22" fill="none" stroke="#a855f7" stroke-width="2.5" opacity="0.85"/>
  <!-- Row 3 -->
  <circle cx="35" cy="155" r="17" fill="#2ecc71"/><circle cx="35" cy="155" r="17" fill="url(#sh)"/>
  <circle cx="85" cy="155" r="17" fill="#e74c3c"/><circle cx="85" cy="155" r="17" fill="url(#sh)"/>
  <circle cx="135" cy="155" r="17" fill="#f1c40f"/><circle cx="135" cy="155" r="17" fill="url(#sh)"/>
  <circle cx="185" cy="155" r="17" fill="#e67e22"/><circle cx="185" cy="155" r="17" fill="url(#sh)"/>
  <circle cx="235" cy="155" r="17" fill="#3498db"/><circle cx="235" cy="155" r="17" fill="url(#sh)"/>
  <circle cx="285" cy="155" r="17" fill="#9b59b6"/><circle cx="285" cy="155" r="17" fill="url(#sh)"/>
  <circle cx="335" cy="155" r="17" fill="#f1c40f"/><circle cx="335" cy="155" r="17" fill="url(#sh)"/>
  <!-- Row 4 partial -->
  <circle cx="35" cy="205" r="17" fill="#e67e22"/><circle cx="35" cy="205" r="17" fill="url(#sh)"/>
  <circle cx="85" cy="205" r="17" fill="#3498db"/><circle cx="85" cy="205" r="17" fill="url(#sh)"/>
  <circle cx="135" cy="205" r="17" fill="#2ecc71"/><circle cx="135" cy="205" r="17" fill="url(#sh)"/>
  <circle cx="185" cy="205" r="17" fill="#e74c3c"/><circle cx="185" cy="205" r="17" fill="url(#sh)"/>
  <!-- Title -->
  <text x="200" y="284" font-family="monospace" font-size="24" fill="#a855f7" text-anchor="middle" font-weight="bold" letter-spacing="2">GEM BLAST</text>
</svg>
