<svg xmlns="http://www.w3.org/2000/svg" width="400" height="300" viewBox="0 0 400 300">
  <defs>
    <linearGradient id="sky" x1="0%" y1="0%" x2="0%" y2="100%">
      <stop offset="0%" style="stop-color:#aee6ff"/>
      <stop offset="100%" style="stop-color:#8ed0f0"/>
    </linearGradient>
  </defs>
  <rect width="400" height="300" fill="url(#sky)"/>
  <ellipse cx="90" cy="70" rx="55" ry="20" fill="#ffffff" opacity="0.55"/>
  <ellipse cx="300" cy="110" rx="65" ry="24" fill="#ffffff" opacity="0.5"/>
  <g stroke="#ffffff" stroke-width="2" opacity="0.7">
    <line x1="110" y1="150" x2="110" y2="185"/>
    <line x1="200" y1="120" x2="200" y2="160"/>
    <line x1="290" y1="175" x2="290" y2="210"/>
  </g>
  <g stroke="#ffffff" stroke-width="3" opacity="0.9">
    <ellipse cx="110" cy="120" rx="30" ry="35" fill="#e74c3c"/>
    <ellipse cx="200" cy="90" rx="32" ry="38" fill="#f1c40f"/>
    <ellipse cx="290" cy="145" rx="30" ry="35" fill="#9b59b6"/>
    <ellipse cx="60" cy="185" rx="26" ry="31" fill="#2ecc71"/>
    <ellipse cx="345" cy="90" rx="24" ry="29" fill="#3498db"/>
  </g>
  <ellipse cx="100" cy="108" rx="9" ry="12" fill="#ffffff" opacity="0.45"/>
  <ellipse cx="190" cy="76" rx="10" ry="13" fill="#ffffff" opacity="0.45"/>
  <rect x="0" y="248" width="400" height="52" fill="#1c3d5a" opacity="0.85"/>
  <text x="200" y="282" font-family="Arial, sans-serif" font-size="30" font-weight="bold" fill="#ffffff" text-anchor="middle">Balloon Pop</text>
</svg>
