<svg xmlns="http://www.w3.org/2000/svg" width="400" height="300" viewBox="0 0 400 300">
  <defs>
    <linearGradient id="bg" x1="0%" y1="0%" x2="100%" y2="100%">
      <stop offset="0%" style="stop-color:#78350f"/>
      <stop offset="100%" style="stop-color:#92400e"/>
    </linearGradient>
  </defs>
  <rect width="400" height="300" fill="#fef3c7"/>
  <rect width="400" height="300" fill="url(#bg)" opacity="0.1"/>
  <!-- Board -->
  <rect x="40" y="30" width="320" height="240" rx="12" fill="#b45309"/>
  <!-- Tiles row 1 -->
  <rect x="52" y="42" width="68" height="68" rx="6" fill="#f59e0b"/>
  <text x="86" y="86" text-anchor="middle" fill="white" font-family="Arial" font-size="28" font-weight="bold">4</text>
  <rect x="128" y="42" width="68" height="68" rx="6" fill="#d97706"/>
  <text x="162" y="86" text-anchor="middle" fill="white" font-family="Arial" font-size="28" font-weight="bold">8</text>
  <rect x="204" y="42" width="68" height="68" rx="6" fill="#b45309"/>
  <text x="238" y="86" text-anchor="middle" fill="white" font-family="Arial" font-size="24" font-weight="bold">16</text>
  <rect x="280" y="42" width="68" height="68" rx="6" fill="#92400e"/>
  <text x="314" y="86" text-anchor="middle" fill="white" font-family="Arial" font-size="24" font-weight="bold">32</text>
  <!-- Tiles row 2 -->
  <rect x="52" y="118" width="68" height="68" rx="6" fill="#92400e"/>
  <text x="86" y="162" text-anchor="middle" fill="white" font-family="Arial" font-size="24" font-weight="bold">64</text>
  <rect x="128" y="118" width="68" height="68" rx="6" fill="#7c2d12"/>
  <text x="162" y="162" text-anchor="middle" fill="white" font-family="Arial" font-size="20" font-weight="bold">128</text>
  <rect x="204" y="118" width="68" height="68" rx="6" fill="#7c2d12"/>
  <text x="238" y="162" text-anchor="middle" fill="white" font-family="Arial" font-size="20" font-weight="bold">256</text>
  <rect x="280" y="118" width="68" height="68" rx="6" fill="#451a03"/>
  <text x="314" y="162" text-anchor="middle" fill="white" font-family="Arial" font-size="20" font-weight="bold">512</text>
  <!-- 2048 hero tile -->
  <rect x="52" y="194" width="220" height="68" rx="6" fill="#fbbf24"/>
  <text x="162" y="239" text-anchor="middle" fill="#451a03" font-family="Arial" font-size="40" font-weight="bold">2048</text>
  <rect x="280" y="194" width="68" height="68" rx="6" fill="#b45309"/>
  <text x="314" y="238" text-anchor="middle" fill="white" font-family="Arial" font-size="14" font-weight="bold">4096</text>
</svg>
