<svg xmlns="http://www.w3.org/2000/svg" width="400" height="300" viewBox="0 0 400 300">
  <defs>
    <linearGradient id="bg" x1="0%" y1="0%" x2="100%" y2="100%">
      <stop offset="0%" style="stop-color:#0f172a"/>
      <stop offset="100%" style="stop-color:#1e293b"/>
    </linearGradient>
  </defs>
  <rect width="400" height="300" fill="url(#bg)"/>
  <!-- Bricks row 1 (red) -->
  <rect x="20" y="40" width="54" height="20" rx="3" fill="#ef4444"/>
  <rect x="80" y="40" width="54" height="20" rx="3" fill="#ef4444"/>
  <rect x="140" y="40" width="54" height="20" rx="3" fill="#ef4444"/>
  <rect x="200" y="40" width="54" height="20" rx="3" fill="#ef4444"/>
  <rect x="260" y="40" width="54" height="20" rx="3" fill="#ef4444"/>
  <rect x="320" y="40" width="60" height="20" rx="3" fill="#ef4444"/>
  <!-- Bricks row 2 (orange) -->
  <rect x="20" y="66" width="54" height="20" rx="3" fill="#f97316"/>
  <rect x="80" y="66" width="54" height="20" rx="3" fill="#f97316"/>
  <rect x="140" y="66" width="54" height="20" rx="3" fill="#f97316"/>
  <rect x="200" y="66" width="54" height="20" rx="3" fill="#f97316"/>
  <rect x="260" y="66" width="54" height="20" rx="3" fill="#f97316"/>
  <rect x="320" y="66" width="60" height="20" rx="3" fill="#f97316"/>
  <!-- Bricks row 3 (yellow) - some missing (broken) -->
  <rect x="20" y="92" width="54" height="20" rx="3" fill="#eab308"/>
  <rect x="140" y="92" width="54" height="20" rx="3" fill="#eab308"/>
  <rect x="200" y="92" width="54" height="20" rx="3" fill="#eab308"/>
  <rect x="320" y="92" width="60" height="20" rx="3" fill="#eab308"/>
  <!-- Bricks row 4 (green) -->
  <rect x="20" y="118" width="54" height="20" rx="3" fill="#22c55e"/>
  <rect x="80" y="118" width="54" height="20" rx="3" fill="#22c55e"/>
  <rect x="260" y="118" width="54" height="20" rx="3" fill="#22c55e"/>
  <rect x="320" y="118" width="60" height="20" rx="3" fill="#22c55e"/>
  <!-- Bricks row 5 (blue) -->
  <rect x="20" y="144" width="54" height="20" rx="3" fill="#3b82f6"/>
  <rect x="80" y="144" width="54" height="20" rx="3" fill="#3b82f6"/>
  <rect x="140" y="144" width="54" height="20" rx="3" fill="#3b82f6"/>
  <rect x="200" y="144" width="54" height="20" rx="3" fill="#3b82f6"/>
  <rect x="260" y="144" width="54" height="20" rx="3" fill="#3b82f6"/>
  <rect x="320" y="144" width="60" height="20" rx="3" fill="#3b82f6"/>
  <!-- Ball -->
  <circle cx="210" cy="200" r="10" fill="#fbbf24"/>
  <circle cx="207" cy="197" r="4" fill="#fef08a" opacity="0.7"/>
  <!-- Ball trail -->
  <circle cx="185" cy="220" r="6" fill="#fbbf24" opacity="0.4"/>
  <circle cx="165" cy="235" r="4" fill="#fbbf24" opacity="0.2"/>
  <!-- Paddle -->
  <rect x="140" y="255" width="120" height="16" rx="8" fill="#60a5fa"/>
  <rect x="148" y="258" width="104" height="5" rx="3" fill="#bfdbfe" opacity="0.5"/>
  <!-- Score HUD -->
  <text x="20" y="290" fill="#e2e8f0" font-family="monospace" font-size="13" font-weight="bold">Score: 280</text>
  <text x="380" y="290" text-anchor="end" fill="#f87171" font-family="monospace" font-size="13">♥♥♥</text>
  <text x="200" y="290" text-anchor="middle" fill="#60a5fa" font-family="monospace" font-size="18" font-weight="bold" letter-spacing="2">BREAKOUT</text>
</svg>
