<svg xmlns="http://www.w3.org/2000/svg" width="400" height="300" viewBox="0 0 400 300">
  <defs>
    <linearGradient id="bg" x1="0%" y1="0%" x2="100%" y2="100%">
      <stop offset="0%" style="stop-color:#0f0f1a"/>
      <stop offset="100%" style="stop-color:#1a1a2e"/>
    </linearGradient>
  </defs>
  <rect width="400" height="300" fill="url(#bg)"/>
  <!-- Game board border -->
  <rect x="120" y="20" width="160" height="240" rx="4" fill="none" stroke="#333" stroke-width="2"/>
  <!-- Settled blocks -->
  <rect x="122" y="222" width="38" height="36" rx="2" fill="#ef4444"/>
  <rect x="162" y="222" width="38" height="36" rx="2" fill="#3b82f6"/>
  <rect x="202" y="222" width="38" height="36" rx="2" fill="#22c55e"/>
  <rect x="242" y="222" width="36" height="36" rx="2" fill="#f59e0b"/>
  <rect x="122" y="184" width="38" height="36" rx="2" fill="#a855f7"/>
  <rect x="162" y="184" width="38" height="36" rx="2" fill="#ef4444"/>
  <rect x="202" y="184" width="38" height="36" rx="2" fill="#3b82f6"/>
  <rect x="242" y="184" width="36" height="36" rx="2" fill="#22c55e"/>
  <rect x="122" y="146" width="38" height="36" rx="2" fill="#f59e0b"/>
  <rect x="162" y="146" width="38" height="36" rx="2" fill="#a855f7"/>
  <rect x="202" y="146" width="78" height="36" rx="2" fill="#ef4444"/>
  <!-- Falling I-piece (cyan) -->
  <rect x="162" y="22" width="38" height="36" rx="2" fill="#06b6d4" opacity="0.9"/>
  <rect x="162" y="60" width="38" height="36" rx="2" fill="#06b6d4" opacity="0.9"/>
  <rect x="162" y="98" width="38" height="36" rx="2" fill="#06b6d4" opacity="0.9"/>
  <rect x="162" y="136" width="38" height="8" rx="2" fill="#06b6d4" opacity="0.5"/>
  <!-- Title -->
  <text x="200" y="285" text-anchor="middle" fill="#06b6d4" font-family="Arial, sans-serif" font-size="28" font-weight="bold" letter-spacing="4">TETRIS</text>
</svg>
