<svg xmlns="http://www.w3.org/2000/svg" width="400" height="300" viewBox="0 0 400 300">
  <defs>
    <linearGradient id="court" x1="0%" y1="0%" x2="0%" y2="100%">
      <stop offset="0%" style="stop-color:#ffe6b8"/>
      <stop offset="100%" style="stop-color:#ffd190"/>
    </linearGradient>
  </defs>
  <rect width="400" height="300" fill="url(#court)"/>
  <!-- backboard + hoop -->
  <rect x="250" y="30" width="70" height="42" rx="4" fill="#ffffff"/>
  <rect x="268" y="40" width="34" height="22" fill="none" stroke="#e74c3c" stroke-width="3"/>
  <line x1="250" y1="78" x2="320" y2="78" stroke="#e74c3c" stroke-width="6"/>
  <g stroke="#ffffff" stroke-width="2">
    <line x1="252" y1="80" x2="262" y2="104"/>
    <line x1="272" y1="80" x2="276" y2="104"/>
    <line x1="292" y1="80" x2="290" y2="104"/>
    <line x1="318" y1="80" x2="308" y2="104"/>
  </g>
  <!-- ball with arc -->
  <path d="M110 210 Q 200 90 285 78" fill="none" stroke="#c0392b" stroke-width="3" stroke-dasharray="7 7"/>
  <circle cx="110" cy="210" r="30" fill="#e67e22" stroke="#8b4a10" stroke-width="3"/>
  <line x1="80" y1="210" x2="140" y2="210" stroke="#8b4a10" stroke-width="3"/>
  <line x1="110" y1="180" x2="110" y2="240" stroke="#8b4a10" stroke-width="3"/>
  <rect x="0" y="248" width="400" height="52" fill="#e67e22"/>
  <text x="200" y="282" font-family="Arial, sans-serif" font-size="27" font-weight="bold" fill="#ffffff" text-anchor="middle">Basketball Shoot</text>
</svg>
