<svg xmlns="http://www.w3.org/2000/svg" width="400" height="300" viewBox="0 0 400 300">
  <rect width="400" height="300" fill="#eaf6ff"/>
  <g font-family="monospace" font-size="34" font-weight="bold" text-anchor="middle">
    <rect x="86" y="20" width="66" height="66" rx="8" fill="#2ecc71"/><text x="119" y="64" fill="#ffffff">1</text>
    <rect x="167" y="20" width="66" height="66" rx="8" fill="#3498db"/><text x="200" y="64" fill="#ffffff">7</text>
    <rect x="248" y="20" width="66" height="66" rx="8" fill="#2ecc71"/><text x="281" y="64" fill="#ffffff">2</text>
    <rect x="86" y="97" width="66" height="66" rx="8" fill="#3498db"/><text x="119" y="141" fill="#ffffff">5</text>
    <rect x="167" y="97" width="66" height="66" rx="8" fill="#2ecc71"/><text x="200" y="141" fill="#ffffff">3</text>
    <rect x="248" y="97" width="66" height="66" rx="8" fill="#3498db"/><text x="281" y="141" fill="#ffffff">9</text>
    <rect x="86" y="174" width="66" height="66" rx="8" fill="#3498db"/><text x="119" y="218" fill="#ffffff">8</text>
    <rect x="167" y="174" width="66" height="66" rx="8" fill="#2ecc71"/><text x="200" y="218" fill="#ffffff">4</text>
    <rect x="248" y="174" width="66" height="66" rx="8" fill="#3498db"/><text x="281" y="218" fill="#ffffff">6</text>
  </g>
  <rect x="0" y="248" width="400" height="52" fill="#1b3a4b"/>
  <text x="200" y="282" font-family="Arial, sans-serif" font-size="30" font-weight="bold" fill="#ffffff" text-anchor="middle">Number Tap</text>
</svg>
