<svg xmlns="http://www.w3.org/2000/svg" width="320" height="180" viewBox="0 0 320 180">
  <rect width="320" height="180" fill="#1e293b"/>
  <!-- Grid cells -->
  <rect x="20" y="20" width="30" height="30" rx="3" fill="#475569"/>
  <rect x="55" y="20" width="30" height="30" rx="3" fill="#334155"/>
  <text x="70" y="40" text-anchor="middle" font-family="monospace" font-size="16" font-weight="bold" fill="#2563eb">2</text>
  <rect x="90" y="20" width="30" height="30" rx="3" fill="#334155"/>
  <text x="105" y="40" text-anchor="middle" font-family="monospace" font-size="16" font-weight="bold" fill="#16a34a">1</text>
  <rect x="125" y="20" width="30" height="30" rx="3" fill="#475569"/>
  <rect x="160" y="20" width="30" height="30" rx="3" fill="#334155"/>
  <text x="175" y="40" text-anchor="middle" font-family="monospace" font-size="16" font-weight="bold" fill="#2563eb">3</text>
  <rect x="195" y="20" width="30" height="30" rx="3" fill="#475569"/>
  <!-- Flag on one cell -->
  <polygon points="195,28 195,44 210,36" fill="#ff4444"/>
  <line x1="195" y1="28" x2="195" y2="48" stroke="#ffdd00" stroke-width="2"/>
  <rect x="230" y="20" width="30" height="30" rx="3" fill="#475569"/>
  <rect x="265" y="20" width="30" height="30" rx="3" fill="#334155"/>
  <!-- Row 2 -->
  <rect x="20" y="55" width="30" height="30" rx="3" fill="#334155"/>
  <text x="35" y="75" text-anchor="middle" font-family="monospace" font-size="16" font-weight="bold" fill="#16a34a">1</text>
  <rect x="55" y="55" width="30" height="30" rx="3" fill="#475569"/>
  <rect x="90" y="55" width="30" height="30" rx="3" fill="#475569"/>
  <rect x="125" y="55" width="30" height="30" rx="3" fill="#334155"/>
  <text x="140" y="75" text-anchor="middle" font-family="monospace" font-size="16" font-weight="bold" fill="#dc2626">3</text>
  <rect x="160" y="55" width="30" height="30" rx="3" fill="#475569"/>
  <rect x="195" y="55" width="30" height="30" rx="3" fill="#475569"/>
  <rect x="230" y="55" width="30" height="30" rx="3" fill="#334155"/>
  <text x="245" y="75" text-anchor="middle" font-family="monospace" font-size="16" font-weight="bold" fill="#16a34a">2</text>
  <rect x="265" y="55" width="30" height="30" rx="3" fill="#334155"/>
  <text x="280" y="75" text-anchor="middle" font-family="monospace" font-size="16" font-weight="bold" fill="#2563eb">1</text>
  <!-- Mine -->
  <circle cx="70" cy="115" r="12" fill="#ff0000"/>
  <line x1="58" y1="103" x2="82" y2="127" stroke="#ff0000" stroke-width="2"/>
  <line x1="82" y1="103" x2="58" y2="127" stroke="#ff0000" stroke-width="2"/>
  <text x="160" y="165" text-anchor="middle" font-family="monospace" font-size="20" font-weight="bold" fill="white">MINESWEEPER</text>
</svg>
